<?xml version="1.0" encoding="UTF-8" standalone="no"?>
<svg width="500px" height="500px" viewBox="0 0 500 500" version="1.1" xmlns="http://www.w3.org/2000/svg" xmlns:xlink="http://www.w3.org/1999/xlink" xmlns:sketch="http://www.bohemiancoding.com/sketch/ns">
    <!-- Generator: Sketch 3.5.1 (25234) - http://www.bohemiancoding.com/sketch -->
    <title>Safari Pinned Tabs</title>
    <desc>Created with Sketch.</desc>
    <defs></defs>
    <g id="Page-1" stroke="none" stroke-width="1" fill="none" fill-rule="evenodd" sketch:type="MSPage">
        <g id="Circle" sketch:type="MSArtboardGroup" transform="translate(-250.000000, -1250.000000)" fill="#000000">
            <path d="M501,1537.24719 L501,1659 C500.999023,1658.99944 501,1659 501,1659 L501,1537.24719 L501,1415.49438 C501,1415.49438 538.760608,1352.02303 603.584498,1384.00789 C668.408388,1415.99275 671.629839,1483.66596 637.607168,1541.96889 C603.584544,1600.27173 501.00029,1658.99983 501,1659 C500.367415,1658.63748 398.310495,1600.09186 364.392832,1541.96889 C330.370161,1483.66596 333.591612,1415.99275 398.415502,1384.00789 C463.239392,1352.02303 501,1415.49438 501,1415.49438 L501,1537.24719 Z M500,1750 C638.071187,1750 750,1638.07119 750,1500 C750,1361.92881 638.071187,1250 500,1250 C361.928813,1250 250,1361.92881 250,1500 C250,1638.07119 361.928813,1750 500,1750 Z" id="Safari-Pinned-Tabs" sketch:type="MSShapeGroup"></path>
        </g>
    </g>
</svg>